<svg width="32" height="32" viewBox="0 0 32 32" fill="none" xmlns="http://www.w3.org/2000/svg">
<path d="M28 18V26C28 26.2652 27.8946 26.5196 27.7071 26.7071C27.5196 26.8946 27.2652 27 27 27H5C4.73478 27 4.48043 26.8946 4.29289 26.7071C4.10536 26.5196 4 26.2652 4 26V18C4 17.7348 4.10536 17.4804 4.29289 17.2929C4.48043 17.1054 4.73478 17 5 17C5.26522 17 5.51957 17.1054 5.70711 17.2929C5.89464 17.4804 6 17.7348 6 18V25H26V18C26 17.7348 26.1054 17.4804 26.2929 17.2929C26.4804 17.1054 26.7348 17 27 17C27.2652 17 27.5196 17.1054 27.7071 17.2929C27.8946 17.4804 28 17.7348 28 18ZM15.2925 18.7075C15.3854 18.8005 15.4957 18.8742 15.6171 18.9246C15.7385 18.9749 15.8686 19.0008 16 19.0008C16.1314 19.0008 16.2615 18.9749 16.3829 18.9246C16.5043 18.8742 16.6146 18.8005 16.7075 18.7075L21.7075 13.7075C21.8004 13.6146 21.8741 13.5043 21.9244 13.3829C21.9747 13.2615 22.0006 13.1314 22.0006 13C22.0006 12.8686 21.9747 12.7385 21.9244 12.6171C21.8741 12.4957 21.8004 12.3854 21.7075 12.2925C21.6146 12.1996 21.5043 12.1259 21.3829 12.0756C21.2615 12.0253 21.1314 11.9994 21 11.9994C20.8686 11.9994 20.7385 12.0253 20.6171 12.0756C20.4957 12.1259 20.3854 12.1996 20.2925 12.2925L17 15.5863V4C17 3.73478 16.8946 3.48043 16.7071 3.29289C16.5196 3.10536 16.2652 3 16 3C15.7348 3 15.4804 3.10536 15.2929 3.29289C15.1054 3.48043 15 3.73478 15 4V15.5863L11.7075 12.2925C11.5199 12.1049 11.2654 11.9994 11 11.9994C10.7346 11.9994 10.4801 12.1049 10.2925 12.2925C10.1049 12.4801 9.99944 12.7346 9.99944 13C9.99944 13.2654 10.1049 13.5199 10.2925 13.7075L15.2925 18.7075Z" fill="black"/>
</svg>
