<svg width="32" height="32" viewBox="0 0 32 32" fill="none" xmlns="http://www.w3.org/2000/svg">
<path d="M30 11.0287C29.9498 12.7695 29.234 14.4248 28 15.6537L23.6562 19.9999C23.0236 20.6361 22.2711 21.1404 21.4422 21.4837C20.6133 21.827 19.7246 22.0024 18.8275 21.9999H18.8212C17.9088 21.9993 17.0057 21.8158 16.1654 21.4603C15.325 21.1048 14.5644 20.5844 13.9286 19.93C13.2927 19.2756 12.7944 18.5004 12.4632 17.6502C12.1319 16.8 11.9744 15.892 12 14.9799C12.0074 14.7147 12.12 14.4633 12.3128 14.2811C12.5056 14.0988 12.7629 14.0006 13.0281 14.0081C13.2933 14.0155 13.5447 14.128 13.727 14.3209C13.9092 14.5137 14.0074 14.771 14 15.0362C13.9818 15.6811 14.093 16.3231 14.3271 16.9243C14.5613 17.5255 14.9135 18.0736 15.3631 18.5364C15.8127 18.9991 16.3504 19.3671 16.9446 19.6184C17.5388 19.8698 18.1773 19.9995 18.8225 19.9999C19.4567 20.0016 20.0849 19.8775 20.6709 19.6348C21.2568 19.3921 21.7889 19.0357 22.2362 18.5862L26.58 14.2424C27.4762 13.335 27.977 12.1098 27.973 10.8343C27.969 9.55891 27.4605 8.33686 26.5587 7.435C25.6568 6.53313 24.4348 6.0247 23.1593 6.02071C21.8839 6.01672 20.6587 6.51749 19.7512 7.4137L18.3762 8.78869C18.1872 8.96831 17.9354 9.06697 17.6747 9.06363C17.4139 9.0603 17.1648 8.95523 16.9804 8.77082C16.7959 8.58642 16.6909 8.33728 16.6875 8.07652C16.6842 7.81576 16.7829 7.56401 16.9625 7.37495L18.3375 5.99994C18.9718 5.36536 19.725 4.86196 20.554 4.51851C21.3829 4.17506 22.2714 3.99829 23.1687 3.99829C24.066 3.99829 24.9545 4.17506 25.7835 4.51851C26.6124 4.86196 27.3656 5.36536 28 5.99994C28.657 6.65864 29.1732 7.44416 29.517 8.30868C29.8609 9.1732 30.0252 10.0987 30 11.0287ZM13.625 23.2074L12.25 24.5824C11.8015 25.0339 11.2678 25.3917 10.6798 25.635C10.0918 25.8784 9.46132 26.0024 8.82498 25.9999C7.87036 25.9992 6.93738 25.7155 6.14394 25.1847C5.35049 24.6539 4.73218 23.8998 4.36712 23.0177C4.00207 22.1357 3.90666 21.1652 4.09294 20.2289C4.27923 19.2927 4.73885 18.4326 5.41373 17.7574L9.74998 13.4137C10.433 12.7271 11.3066 12.2617 12.2575 12.0781C13.2083 11.8944 14.1924 12.0008 15.082 12.3836C15.9716 12.7664 16.7255 13.4078 17.2459 14.2246C17.7662 15.0413 18.029 15.9957 18 16.9637C17.9925 17.2289 18.0907 17.4862 18.273 17.679C18.4552 17.8719 18.7066 17.9844 18.9719 17.9918C19.2371 17.9993 19.4944 17.9011 19.6872 17.7188C19.88 17.5366 19.9925 17.2852 20 17.0199C20.024 16.0914 19.8591 15.1676 19.5153 14.3046C19.1715 13.4417 18.656 12.6576 18 11.9999C16.719 10.7195 14.9819 10.0002 13.1706 10.0002C11.3594 10.0002 9.62225 10.7195 8.34123 11.9999L3.99998 16.3437C3.04527 17.298 2.39488 18.5139 2.13099 19.8378C1.86711 21.1616 2.00159 22.534 2.51742 23.7814C3.03325 25.0289 3.9073 26.0954 5.02909 26.8463C6.15089 27.5971 7.47009 27.9986 8.81998 27.9999C9.71732 28.0025 10.6063 27.8271 11.4353 27.4838C12.2644 27.1405 13.0171 26.6361 13.65 25.9999L15.025 24.6249C15.1868 24.4343 15.2714 24.19 15.2619 23.9401C15.2525 23.6902 15.1499 23.453 14.9741 23.2751C14.7984 23.0971 14.5624 22.9915 14.3127 22.979C14.063 22.9665 13.8176 23.048 13.625 23.2074Z" fill="black"/>
</svg>
