<svg width="32" height="32" viewBox="0 0 32 32" xmlns="http://www.w3.org/2000/svg">
<path d="M29.6001 23.5113L18.6688 4.52758C18.3956 4.06249 18.0057 3.67686 17.5376 3.40891C17.0695 3.14096 16.5394 3 16.0001 3C15.4607 3 14.9307 3.14096 14.4626 3.40891C13.9944 3.67686 13.6045 4.06249 13.3313 4.52758L2.40006 23.5113C2.13723 23.9612 1.99872 24.4728 1.99872 24.9938C1.99872 25.5148 2.13723 26.0265 2.40006 26.4763C2.66972 26.9442 3.05902 27.332 3.52801 27.5997C3.997 27.8675 4.52879 28.0057 5.06881 28.0001H26.9313C27.4709 28.0052 28.0022 27.8669 28.4707 27.5991C28.9392 27.3314 29.3281 26.9439 29.5976 26.4763C29.8608 26.0267 29.9997 25.5152 30.0002 24.9942C30.0006 24.4732 29.8625 23.9614 29.6001 23.5113ZM27.8663 25.4751C27.771 25.6376 27.6342 25.7719 27.4699 25.8642C27.3056 25.9564 27.1197 26.0033 26.9313 26.0001H5.06881C4.88041 26.0033 4.69452 25.9564 4.53022 25.8642C4.36592 25.7719 4.22911 25.6376 4.13381 25.4751C4.04749 25.3289 4.00196 25.1623 4.00196 24.9926C4.00196 24.8228 4.04749 24.6562 4.13381 24.5101L15.0651 5.52633C15.1623 5.36455 15.2997 5.23068 15.464 5.13774C15.6283 5.04479 15.8138 4.99595 16.0026 4.99595C16.1913 4.99595 16.3768 5.04479 16.5411 5.13774C16.7054 5.23068 16.8428 5.36455 16.9401 5.52633L27.8713 24.5101C27.9569 24.6567 28.0015 24.8235 28.0007 24.9933C27.9998 25.163 27.9534 25.3294 27.8663 25.4751ZM15.0001 18.0001V13.0001C15.0001 12.7349 15.1054 12.4805 15.293 12.293C15.4805 12.1054 15.7348 12.0001 16.0001 12.0001C16.2653 12.0001 16.5196 12.1054 16.7072 12.293C16.8947 12.4805 17.0001 12.7349 17.0001 13.0001V18.0001C17.0001 18.2653 16.8947 18.5197 16.7072 18.7072C16.5196 18.8947 16.2653 19.0001 16.0001 19.0001C15.7348 19.0001 15.4805 18.8947 15.293 18.7072C15.1054 18.5197 15.0001 18.2653 15.0001 18.0001ZM17.5001 22.5001C17.5001 22.7968 17.4121 23.0868 17.2473 23.3334C17.0824 23.5801 16.8482 23.7724 16.5741 23.8859C16.3 23.9994 15.9984 24.0291 15.7074 23.9713C15.4165 23.9134 15.1492 23.7705 14.9394 23.5607C14.7296 23.351 14.5868 23.0837 14.5289 22.7927C14.471 22.5017 14.5007 22.2001 14.6142 21.9261C14.7278 21.652 14.92 21.4177 15.1667 21.2529C15.4134 21.0881 15.7034 21.0001 16.0001 21.0001C16.3979 21.0001 16.7794 21.1581 17.0607 21.4394C17.342 21.7207 17.5001 22.1023 17.5001 22.5001Z" />
</svg>
